<svg xmlns="http://www.w3.org/2000/svg" viewBox="0 0 662.66 113"><defs><style>.cls-1{fill:#ff2525;}.cls-2{fill:#3d006a;}</style></defs><title>logo</title><g id="Layer_2" data-name="Layer 2"><g id="Layer_5" data-name="Layer 5"><path class="cls-1" d="M66.23,57.27a31.74,31.74,0,0,1-2.64,12.85,34,34,0,0,1-7.16,10.57,33.61,33.61,0,0,1-10.56,7.12,32,32,0,0,1-12.79,2.61,32,32,0,0,1-12.89-2.61,33.35,33.35,0,0,1-10.5-7.12A33.77,33.77,0,0,1,2.61,70.12a33,33,0,0,1,0-25.71A33.84,33.84,0,0,1,9.69,33.85a33.21,33.21,0,0,1,10.5-7.13,32.17,32.17,0,0,1,12.89-2.6A31.24,31.24,0,0,1,38,24.5a30.63,30.63,0,0,1,4.79,1.15V12.16a13,13,0,0,1,.87-4.79,11.88,11.88,0,0,1,2.4-3.86A10.85,10.85,0,0,1,49.76.94a12,12,0,0,1,9.31,0,11.62,11.62,0,0,1,6.26,6.43,12.64,12.64,0,0,1,.9,4.79Zm-23.42,0a9.14,9.14,0,0,0-.8-3.79,10,10,0,0,0-2.15-3.09,10.52,10.52,0,0,0-3.1-2.09,9,9,0,0,0-3.68-.76,9.21,9.21,0,0,0-3.75.76,10.34,10.34,0,0,0-3.09,2.09,9.63,9.63,0,0,0,0,13.76,10.31,10.31,0,0,0,3.09,2.08,9.27,9.27,0,0,0,7.4,0,10.37,10.37,0,0,0,3.13-2.08A10,10,0,0,0,42,61.05,9.12,9.12,0,0,0,42.81,57.27Z"/><path class="cls-1" d="M74.15,57.27a31.79,31.79,0,0,1,2.64-12.86A34.06,34.06,0,0,1,84,33.85a33.57,33.57,0,0,1,10.53-7.13,33,33,0,0,1,25.68,0,33.12,33.12,0,0,1,10.53,7.13,33.87,33.87,0,0,1,7.09,10.56,32.1,32.1,0,0,1,2.6,12.86V77.63a11.7,11.7,0,0,1-.93,4.62,12,12,0,0,1-6.4,6.4,11.86,11.86,0,0,1-4.69.93,11.49,11.49,0,0,1-4.24-.76,10.28,10.28,0,0,1-3.4-2.16,28.49,28.49,0,0,1-6.5,2.78,24.78,24.78,0,0,1-6.92,1,31.53,31.53,0,0,1-12.82-2.64A34,34,0,0,1,76.79,70.09,31.53,31.53,0,0,1,74.15,57.27Zm23.35,0a9.12,9.12,0,0,0,.8,3.78,10.09,10.09,0,0,0,5.29,5.18,9.35,9.35,0,0,0,7.43,0,9.75,9.75,0,0,0,5.18-5.18,9.81,9.81,0,0,0,0-7.57A9.84,9.84,0,0,0,111,48.3a9.46,9.46,0,0,0-7.43,0,10.19,10.19,0,0,0-5.29,5.18A9.14,9.14,0,0,0,97.5,57.27Z"/><path class="cls-1" d="M173.61,58.59a8.23,8.23,0,0,0,2.64,6,9.17,9.17,0,0,0,6.46,2.3,8.33,8.33,0,0,0,3.58-.77,9,9,0,0,0,2.85-2.08,9.45,9.45,0,0,0,1.87-3,9.75,9.75,0,0,0,.66-3.57v-21a10.65,10.65,0,0,1,1-4.49,12.09,12.09,0,0,1,2.6-3.68A12.6,12.6,0,0,1,199,25.85a11.81,11.81,0,0,1,4.59-.9,11.13,11.13,0,0,1,4.45.9,12,12,0,0,1,3.65,2.47A11.14,11.14,0,0,1,214.16,32a11.74,11.74,0,0,1,.87,4.49v21.4a31.21,31.21,0,0,1-1.57,9.94,33.74,33.74,0,0,1-4.31,8.69,31.3,31.3,0,0,1-6.6,7,32.24,32.24,0,0,1-8.44,4.72v13.07a11.81,11.81,0,0,1-.91,4.66,11.09,11.09,0,0,1-2.5,3.71A11.69,11.69,0,0,1,187,112.1a11.31,11.31,0,0,1-4.48.9,11.68,11.68,0,0,1-4.62-.9,11.91,11.91,0,0,1-3.72-2.47,11.24,11.24,0,0,1-2.5-3.71,12,12,0,0,1-.9-4.66V88.05A33.11,33.11,0,0,1,156,76.31a33,33,0,0,1-4.24-8.58,31.56,31.56,0,0,1-1.53-9.84V36.49a11.09,11.09,0,0,1,.94-4.49,12.16,12.16,0,0,1,2.5-3.68,11.77,11.77,0,0,1,3.69-2.47,11.35,11.35,0,0,1,4.48-.9,11.61,11.61,0,0,1,4.52.9,12.6,12.6,0,0,1,3.79,2.47A11.67,11.67,0,0,1,172.67,32a11.09,11.09,0,0,1,.94,4.49Z"/><path class="cls-2" d="M248.25,25H264.3a11,11,0,0,1,4.55.94,11.86,11.86,0,0,1,3.72,2.57,12.68,12.68,0,0,1,2.54,3.75,11.28,11.28,0,0,1,0,9,11.75,11.75,0,0,1-2.54,3.68,12.43,12.43,0,0,1-3.75,2.5,11.17,11.17,0,0,1-4.52.94H248.25v8.76a9.68,9.68,0,0,0,.76,3.82A10.31,10.31,0,0,0,251.06,64a9.59,9.59,0,0,0,3,2.16,8.78,8.78,0,0,0,3.69.8,12,12,0,0,0,3.23-.42,6,6,0,0,0,2.47-1.32,15.24,15.24,0,0,1,5-3.27,12.32,12.32,0,0,1,5.56-.52,10,10,0,0,1,5.42,2.75,9.55,9.55,0,0,1,2.75,4.1,12.89,12.89,0,0,1,.66,4.86,13.86,13.86,0,0,1-1.22,4.9,13.51,13.51,0,0,1-2.95,4.21,28.27,28.27,0,0,1-9.49,6.08,31.68,31.68,0,0,1-11.43,2,31.12,31.12,0,0,1-12.83-2.68,33.89,33.89,0,0,1-10.49-7.23,33.48,33.48,0,0,1-7-10.66,33.11,33.11,0,0,1-2.58-13V20a11.46,11.46,0,0,1,.94-4.59,11.86,11.86,0,0,1,2.57-3.75,12.41,12.41,0,0,1,3.76-2.54,11,11,0,0,1,4.55-.94,11.35,11.35,0,0,1,4.48.9,11.5,11.5,0,0,1,3.69,2.51,12.37,12.37,0,0,1,2.5,3.75,11.65,11.65,0,0,1,.94,4.66Z"/><path class="cls-2" d="M310.72,82.63a11.49,11.49,0,0,1-2.47,3.65,11,11,0,0,1-3.64,2.43,11.46,11.46,0,0,1-4.45.87,12.17,12.17,0,0,1-4.59-.87,11.18,11.18,0,0,1-3.75-2.43,12.29,12.29,0,0,1-2.57-3.65,10.51,10.51,0,0,1-1-4.51V58.59a33.73,33.73,0,0,1,3.06-12.89,35.67,35.67,0,0,1,7.37-10.53,36.23,36.23,0,0,1,10.6-7.23A33.29,33.29,0,0,1,322.12,25a1.33,1.33,0,0,1,.45-.07h.87a13.74,13.74,0,0,1,4.94,1,11.29,11.29,0,0,1,3.68,2.47A10.65,10.65,0,0,1,334.39,32a12.6,12.6,0,0,1,.8,4.52,11.2,11.2,0,0,1-.94,4.55,12.29,12.29,0,0,1-2.54,3.72,11.73,11.73,0,0,1-3.75,2.5,12.65,12.65,0,0,1-4.59,1,11.69,11.69,0,0,0-4.48.87,11.84,11.84,0,0,0-3.69,2.36,12,12,0,0,0-2.53,3.55,10.61,10.61,0,0,0-1,4.34v18.7A11.25,11.25,0,0,1,310.72,82.63Z"/><path class="cls-2" d="M336.64,57.27a31.63,31.63,0,0,1,2.65-12.86,34,34,0,0,1,7.15-10.56A33.68,33.68,0,0,1,357,26.72a33,33,0,0,1,25.68,0,33.12,33.12,0,0,1,10.53,7.13,33.87,33.87,0,0,1,7.09,10.56,32.11,32.11,0,0,1,2.61,12.86V77.63a11.71,11.71,0,0,1-.94,4.62,12,12,0,0,1-2.57,3.82,12.19,12.19,0,0,1-3.83,2.58,11.83,11.83,0,0,1-4.69.93,11.49,11.49,0,0,1-4.24-.76,10.38,10.38,0,0,1-3.4-2.16,28.49,28.49,0,0,1-6.5,2.78,24.76,24.76,0,0,1-6.91,1A31.55,31.55,0,0,1,357,87.78a34,34,0,0,1-17.68-17.69A31.38,31.38,0,0,1,336.64,57.27Zm23.36,0a9,9,0,0,0,.8,3.78,10,10,0,0,0,2.15,3.1,10.25,10.25,0,0,0,3.13,2.08,9.35,9.35,0,0,0,7.43,0,9.66,9.66,0,0,0,5.18-5.18,9.69,9.69,0,0,0,0-7.57,9.75,9.75,0,0,0-5.18-5.18,9.46,9.46,0,0,0-7.43,0A10.28,10.28,0,0,0,363,50.39a10,10,0,0,0-2.15,3.09A9,9,0,0,0,360,57.27Z"/><path class="cls-2" d="M442.56,47.54a7.36,7.36,0,0,0-3.41,1.14,12.62,12.62,0,0,0-2.78,2.4,13.15,13.15,0,0,0-1.91,3,8.77,8.77,0,0,0-.8,3,7.55,7.55,0,0,0,.73,3,13.36,13.36,0,0,0,1.95,3.09,12.68,12.68,0,0,0,2.81,2.51,7.2,7.2,0,0,0,3.41,1.18,12.77,12.77,0,0,0,1.63,0,10,10,0,0,0,1.67-.21,8.28,8.28,0,0,0,1.81-.59A16.5,16.5,0,0,0,449.79,65c1.2-.92,2.49-1.83,3.85-2.71A13.58,13.58,0,0,1,458,60.43a11.16,11.16,0,0,1,4.94.07,12.74,12.74,0,0,1,5.45,3.09,11,11,0,0,1,2.82,3.82A10.72,10.72,0,0,1,472.1,72,12.9,12.9,0,0,1,471,76.76a15,15,0,0,1-3.05,4.48,30.08,30.08,0,0,1-10.5,6.85,34.74,34.74,0,0,1-12.72,2.33A35.81,35.81,0,0,1,431.41,88a33.85,33.85,0,0,1-10.88-6.85,32.75,32.75,0,0,1-7.4-10.35,31.59,31.59,0,0,1-2.82-13A32.6,32.6,0,0,1,413,44.51a34.13,34.13,0,0,1,7.37-10.7,33.64,33.64,0,0,1,10.95-7.12,34.87,34.87,0,0,1,13.37-2.57,36.18,36.18,0,0,1,12.76,2.22,29.09,29.09,0,0,1,10.46,6.74A15.69,15.69,0,0,1,471,37.6a12.81,12.81,0,0,1,1.15,4.83,10.7,10.7,0,0,1-3.69,8.44A13.31,13.31,0,0,1,463,54,10.85,10.85,0,0,1,458,54a13.75,13.75,0,0,1-4.38-1.91c-1.36-.9-2.65-1.82-3.85-2.75a10.5,10.5,0,0,0-3.93-1.73A15,15,0,0,0,442.56,47.54Z"/><path class="cls-2" d="M521.23,56.57l14.53,13.48a11.21,11.21,0,0,1,2.39,3.79,12.21,12.21,0,0,1,.8,4.38,11.6,11.6,0,0,1-.9,4.45,11.27,11.27,0,0,1-2.64,3.86,11.11,11.11,0,0,1-3.79,2.39,12,12,0,0,1-4.34.8,11.37,11.37,0,0,1-4.35-.87,10.51,10.51,0,0,1-3.78-2.67L503.09,69.64v8.55a11,11,0,0,1-.9,4.48,11.71,11.71,0,0,1-2.47,3.61,11.06,11.06,0,0,1-3.65,2.43,11.43,11.43,0,0,1-4.45.87,11.91,11.91,0,0,1-4.51-.87,11.67,11.67,0,0,1-3.79-2.43,12.13,12.13,0,0,1-2.61-3.61,10.3,10.3,0,0,1-1-4.48V11.4a10.36,10.36,0,0,1,1-4.45,12.48,12.48,0,0,1,2.57-3.65A11.49,11.49,0,0,1,487,.87,12.08,12.08,0,0,1,491.62,0a11.6,11.6,0,0,1,4.52.87,11.22,11.22,0,0,1,3.65,2.43A11.83,11.83,0,0,1,502.26,7a11.1,11.1,0,0,1,.9,4.45V43.09l14.6-14.94a10.75,10.75,0,0,1,8-3.13,10.52,10.52,0,0,1,4.2,1,13.78,13.78,0,0,1,3.79,2.71.17.17,0,0,1-.07-.14,11.08,11.08,0,0,1,2.57,3.9,11.83,11.83,0,0,1,.84,4.34,11.6,11.6,0,0,1-.84,4.31,9.93,9.93,0,0,1-2.57,3.72Z"/><path class="cls-2" d="M569.74,64.49a6.84,6.84,0,0,0,3.47,2.44,14.47,14.47,0,0,0,4.8.83,10.71,10.71,0,0,0,3.4-.55,18.5,18.5,0,0,1,6-1.12,10.61,10.61,0,0,1,5.14,1.18,11.48,11.48,0,0,1,3.55,3,12.39,12.39,0,0,1,2,3.79,12.06,12.06,0,0,1,.66,3.75,8.34,8.34,0,0,1-2.09,5.7,16.09,16.09,0,0,1-5.42,3.89,30.7,30.7,0,0,1-7.57,2.26,51,51,0,0,1-8.55.73,29.79,29.79,0,0,1-12.3-2.61,34,34,0,0,1-17.45-17.62,32.73,32.73,0,0,1,0-25.85,33.4,33.4,0,0,1,17.86-17.58,33.68,33.68,0,0,1,25.71,0,34.39,34.39,0,0,1,10.57,6.92,33.54,33.54,0,0,1,7.26,10.32,32,32,0,0,1,2.85,12.75,8.36,8.36,0,0,1-.87,4.07,5.81,5.81,0,0,1-2.47,2.39,11.18,11.18,0,0,1-3.79,1.12,38.94,38.94,0,0,1-4.76.27ZM585,51.5c-.33-.56-.66-1.15-1-1.77a5.64,5.64,0,0,0-1.43-1.67,7.73,7.73,0,0,0-2.25-1.22,10.76,10.76,0,0,0-3.51-.48,9.85,9.85,0,0,0-3.51.52,6.56,6.56,0,0,0-2.19,1.28,5.74,5.74,0,0,0-1.29,1.67c-.3.6-.57,1.16-.8,1.67Z"/><path class="cls-2" d="M638.19,82.63a11.49,11.49,0,0,1-2.47,3.65,11,11,0,0,1-3.64,2.43,11.46,11.46,0,0,1-4.45.87,12.17,12.17,0,0,1-4.59-.87,11.18,11.18,0,0,1-3.75-2.43,12.29,12.29,0,0,1-2.57-3.65,10.51,10.51,0,0,1-1-4.51V58.59A33.73,33.73,0,0,1,618.8,45.7a35.48,35.48,0,0,1,7.37-10.53,36.23,36.23,0,0,1,10.6-7.23A33.29,33.29,0,0,1,649.59,25,1.33,1.33,0,0,1,650,25h.87a13.65,13.65,0,0,1,4.93,1,11.23,11.23,0,0,1,3.69,2.47A10.65,10.65,0,0,1,661.86,32a12.6,12.6,0,0,1,.8,4.52,11.2,11.2,0,0,1-.94,4.55,12.29,12.29,0,0,1-2.54,3.72,11.73,11.73,0,0,1-3.75,2.5,12.65,12.65,0,0,1-4.59,1,11.69,11.69,0,0,0-4.48.87,11.84,11.84,0,0,0-3.69,2.36,12,12,0,0,0-2.53,3.55,10.61,10.61,0,0,0-1,4.34v18.7A11.25,11.25,0,0,1,638.19,82.63Z"/></g></g></svg>